<?xml version='1.0' encoding='UTF-8' standalone='no'?>
<svg baseProfile="tiny" xmlns="http://www.w3.org/2000/svg" version="1.2" height="5.41867mm" width="5.41867mm" viewBox="0 0 64 64" xmlns:xlink="http://www.w3.org/1999/xlink">
 <title>Qt SVG Document</title>
 <desc>Generated with Qt</desc>
 <defs/>
 <g stroke="black" fill-rule="evenodd" stroke-width="1" stroke-linecap="square" fill="none" stroke-linejoin="bevel">
  <g stroke="#000000" transform="matrix(1,0,0,1,0,0)" font-weight="400" font-style="normal" font-size="32.5" stroke-opacity="1" stroke-width="1" stroke-linecap="square" fill="none" stroke-linejoin="bevel" font-family="MS Shell Dlg 2"/>
  <g stroke="#000000" transform="matrix(1,0,0,1,0,0)" font-weight="400" font-style="normal" font-size="32.5" stroke-opacity="1" stroke-width="1" stroke-linecap="square" fill="none" stroke-linejoin="bevel" font-family="MS Shell Dlg 2"/>
  <g stroke="#000000" transform="matrix(11.811,0,0,11.811,0,0)" font-weight="400" font-style="normal" font-size="32.5" stroke-opacity="1" stroke-width="1" stroke-linecap="square" fill="none" stroke-linejoin="bevel" font-family="MS Shell Dlg 2"/>
  <g stroke="#000000" transform="matrix(1,0,0,1,0,0)" font-weight="400" font-style="normal" font-size="32.5" stroke-opacity="1" stroke-width="1" stroke-linecap="square" fill="none" stroke-linejoin="bevel" font-family="MS Shell Dlg 2"/>
  <g stroke="none" transform="matrix(1,0,0,1,0,0)" font-weight="400" font-style="normal" fill-opacity="1" font-size="32.5" fill="#ffffff" font-family="MS Shell Dlg 2">
   <path d="M-2,-2 L66,-2 L66,66 L-2,66 L-2,-2" vector-effect="none" fill-rule="evenodd"/>
  </g>
  <g stroke="#000000" transform="matrix(1,0,0,1,0,0)" font-weight="400" font-style="normal" font-size="32.5" stroke-opacity="1" stroke-width="1" stroke-linecap="square" fill="none" stroke-linejoin="bevel" font-family="MS Shell Dlg 2"/>
  <g stroke="#000000" transform="matrix(11.811,0,0,11.811,0,0)" font-weight="400" font-style="normal" font-size="32.5" stroke-opacity="1" stroke-width="1" stroke-linecap="square" fill="none" stroke-linejoin="bevel" font-family="MS Shell Dlg 2"/>
  <g stroke="#000000" transform="matrix(11.811,0,0,11.811,0,0)" font-weight="400" font-style="normal" font-size="32.5" stroke-opacity="1" stroke-width="1" stroke-linecap="square" fill="none" stroke-linejoin="bevel" font-family="MS Shell Dlg 2"/>
  <g stroke="#000000" transform="matrix(11.811,0,0,11.811,0,0)" font-weight="400" font-style="normal" font-size="32.5" stroke-opacity="1" stroke-width="1" stroke-linecap="square" fill="none" stroke-linejoin="bevel" font-family="MS Shell Dlg 2"/>
  <g stroke="#000000" transform="matrix(11.811,0,0,11.811,0,0)" font-weight="400" font-style="normal" font-size="32.5" stroke-opacity="1" stroke-width="1" stroke-linecap="square" fill="none" stroke-linejoin="bevel" font-family="MS Shell Dlg 2"/>
  <g stroke="#000000" transform="matrix(11.811,0,0,11.811,0,0)" font-weight="400" font-style="normal" font-size="32.5" stroke-opacity="1" stroke-width="1" stroke-linecap="square" fill="none" stroke-linejoin="bevel" font-family="MS Shell Dlg 2"/>
  <g stroke="#000000" transform="matrix(1,0,0,1,0,0)" font-weight="400" font-style="normal" font-size="32.5" stroke-opacity="1" stroke-width="1" stroke-linecap="square" fill="none" stroke-linejoin="bevel" font-family="MS Shell Dlg 2"/>
  <g stroke="#000000" transform="matrix(0.32,0,0,0.32,2.89922,41.7481)" font-weight="400" font-style="normal" font-size="32.5" stroke-opacity="1" stroke-width="1" stroke-linecap="square" fill="none" stroke-linejoin="bevel" font-family="MS Shell Dlg 2"/>
  <g stroke="none" transform="matrix(0.1,0,0,0.1,2.89922,41.7481)" font-weight="400" font-style="normal" fill-opacity="1" font-size="32.5" fill="#33a02c" font-family="MS Shell Dlg 2">
   <path d="M18.5547,-178.955 L73.8525,-178.955 L73.8525,-111.328 L131.777,-178.955 L205.322,-178.955 L140.018,-111.408 L208.252,0 L140.154,0 L102.423,-73.595 L73.8525,-43.6687 L73.8525,0 L18.5547,0 L18.5547,-178.955 M211.056,-89.3555 C211.056,-118.571 219.194,-141.317 235.47,-157.593 C251.746,-173.869 274.41,-182.007 303.463,-182.007 C333.248,-182.007 356.197,-174.011 372.311,-158.02 C388.424,-142.029 396.48,-119.629 396.48,-90.8203 C396.48,-69.9056 392.961,-52.7547 385.921,-39.3677 C378.882,-25.9806 368.709,-15.564 355.404,-8.11768 C342.098,-0.671387 325.517,3.05176 305.66,3.05176 C285.478,3.05176 268.775,-0.16276 255.55,-6.5918 C242.326,-13.0208 231.604,-23.1934 223.385,-37.1094 C215.165,-51.0254 211.056,-68.4408 211.056,-89.3555 M266.354,-89.1113 C266.354,-71.0449 269.71,-58.0648 276.424,-50.1709 C283.138,-42.277 292.273,-38.3301 303.829,-38.3301 C315.711,-38.3301 324.907,-42.1956 331.417,-49.9268 C337.927,-57.6579 341.183,-71.5332 341.183,-91.5527 C341.183,-108.398 337.785,-120.707 330.99,-128.479 C324.194,-136.251 314.978,-140.137 303.341,-140.137 C292.192,-140.137 283.24,-136.19 276.485,-128.296 C269.731,-120.402 266.354,-107.34 266.354,-89.1113 M407.222,-178.955 L575.313,-178.955 L575.313,-134.766 L518.916,-134.766 L518.916,0 L463.618,0 L463.618,-134.766 L407.222,-134.766 L407.222,-178.955" vector-effect="none" fill-rule="nonzero"/>
  </g>
  <g stroke="#000000" transform="matrix(0.32,0,0,0.32,2.89922,41.7481)" font-weight="400" font-style="normal" font-size="32.5" stroke-opacity="1" stroke-width="1" stroke-linecap="square" fill="none" stroke-linejoin="bevel" font-family="MS Shell Dlg 2"/>
  <g stroke="#000000" transform="matrix(1,0,0,1,0,0)" font-weight="400" font-style="normal" font-size="32.5" stroke-opacity="1" stroke-width="1" stroke-linecap="square" fill="none" stroke-linejoin="bevel" font-family="MS Shell Dlg 2"/>
  <g stroke="#000000" transform="matrix(1,0,0,1,0,0)" font-weight="400" font-style="normal" font-size="32.5" stroke-opacity="1" stroke-width="1" stroke-linecap="square" fill="none" stroke-linejoin="bevel" font-family="MS Shell Dlg 2"/>
  <g stroke="#000000" transform="matrix(11.811,0,0,11.811,0,0)" font-weight="400" font-style="normal" font-size="32.5" stroke-opacity="1" stroke-width="1" stroke-linecap="square" fill="none" stroke-linejoin="bevel" font-family="MS Shell Dlg 2"/>
  <g stroke="#000000" transform="matrix(11.811,0,0,11.811,0,0)" font-weight="400" font-style="normal" font-size="32.5" stroke-opacity="1" stroke-width="1" stroke-linecap="square" fill="none" stroke-linejoin="bevel" font-family="MS Shell Dlg 2"/>
  <g stroke="#000000" transform="matrix(1,0,0,1,0,0)" font-weight="400" font-style="normal" font-size="32.5" stroke-opacity="1" stroke-width="1" stroke-linecap="square" fill="none" stroke-linejoin="bevel" font-family="MS Shell Dlg 2"/>
 </g>
</svg>
